<mxfile host="app.diagrams.net" modified="2022-03-18T09:49:08.834Z" agent="5.0 (Windows NT 10.0; Win64; x64) AppleWebKit/537.36 (KHTML, like Gecko) Chrome/99.0.4844.74 Safari/537.36" etag="yLk9u35t84ozOjnqxybF" version="17.1.3" type="github">
  <diagram id="JVRrnr6qMCPquyTDF9lO" name="Page-1">
    <mxGraphModel dx="1635" dy="893" grid="0" gridSize="10" guides="0" tooltips="1" connect="1" arrows="1" fold="1" page="1" pageScale="1" pageWidth="827" pageHeight="1169" math="0" shadow="0">
      <root>
        <mxCell id="0" />
        <mxCell id="1" parent="0" />
        <mxCell id="506cZ-UsrLEkSwaGx0-a-2" value="Account" style="text;html=1;align=center;verticalAlign=middle;resizable=0;points=[];autosize=1;strokeColor=none;fillColor=none;" parent="1" vertex="1">
          <mxGeometry x="75" y="20" width="60" height="20" as="geometry" />
        </mxCell>
        <mxCell id="506cZ-UsrLEkSwaGx0-a-3" value="Account ID" style="rounded=0;whiteSpace=wrap;html=1;" parent="1" vertex="1">
          <mxGeometry x="80" y="50" width="100" height="60" as="geometry" />
        </mxCell>
        <mxCell id="506cZ-UsrLEkSwaGx0-a-21" value="" style="shape=partialRectangle;html=1;whiteSpace=wrap;connectable=0;fillColor=none;top=0;left=0;bottom=0;right=0;overflow=hidden;" parent="1" vertex="1">
          <mxGeometry x="560" y="310" width="156" height="40" as="geometry">
            <mxRectangle width="156" height="40" as="alternateBounds" />
          </mxGeometry>
        </mxCell>
        <mxCell id="506cZ-UsrLEkSwaGx0-a-22" value="" style="shape=partialRectangle;html=1;whiteSpace=wrap;connectable=0;fillColor=none;top=0;left=0;bottom=0;right=0;overflow=hidden;" parent="1" vertex="1">
          <mxGeometry x="560" y="310" width="156" height="40" as="geometry">
            <mxRectangle width="156" height="40" as="alternateBounds" />
          </mxGeometry>
        </mxCell>
        <mxCell id="506cZ-UsrLEkSwaGx0-a-23" value="Account name" style="rounded=0;whiteSpace=wrap;html=1;" parent="1" vertex="1">
          <mxGeometry x="180" y="50" width="110" height="60" as="geometry" />
        </mxCell>
        <mxCell id="506cZ-UsrLEkSwaGx0-a-24" value="Password" style="rounded=0;whiteSpace=wrap;html=1;" parent="1" vertex="1">
          <mxGeometry x="290" y="50" width="120" height="60" as="geometry" />
        </mxCell>
        <mxCell id="506cZ-UsrLEkSwaGx0-a-26" value="Account type" style="rounded=0;whiteSpace=wrap;html=1;" parent="1" vertex="1">
          <mxGeometry x="410" y="50" width="120" height="60" as="geometry" />
        </mxCell>
        <mxCell id="506cZ-UsrLEkSwaGx0-a-27" value="Category" style="text;html=1;strokeColor=none;fillColor=none;align=center;verticalAlign=middle;whiteSpace=wrap;rounded=0;" parent="1" vertex="1">
          <mxGeometry x="85" y="230" width="60" height="30" as="geometry" />
        </mxCell>
        <mxCell id="506cZ-UsrLEkSwaGx0-a-29" value="Notes" style="rounded=0;whiteSpace=wrap;html=1;" parent="1" vertex="1">
          <mxGeometry x="435" y="270" width="120" height="60" as="geometry" />
        </mxCell>
        <mxCell id="506cZ-UsrLEkSwaGx0-a-30" value="Details Category" style="rounded=0;whiteSpace=wrap;html=1;" parent="1" vertex="1">
          <mxGeometry x="315" y="270" width="120" height="60" as="geometry" />
        </mxCell>
        <mxCell id="506cZ-UsrLEkSwaGx0-a-31" value="Category name" style="rounded=0;whiteSpace=wrap;html=1;" parent="1" vertex="1">
          <mxGeometry x="195" y="270" width="120" height="60" as="geometry" />
        </mxCell>
        <mxCell id="506cZ-UsrLEkSwaGx0-a-32" value="&lt;u&gt;Category ID&lt;/u&gt;" style="rounded=0;whiteSpace=wrap;html=1;" parent="1" vertex="1">
          <mxGeometry x="80" y="270" width="120" height="60" as="geometry" />
        </mxCell>
        <mxCell id="506cZ-UsrLEkSwaGx0-a-33" value="Employee" style="text;html=1;align=center;verticalAlign=middle;resizable=0;points=[];autosize=1;strokeColor=none;fillColor=none;" parent="1" vertex="1">
          <mxGeometry x="75" y="130" width="70" height="20" as="geometry" />
        </mxCell>
        <mxCell id="506cZ-UsrLEkSwaGx0-a-34" value="Address Employee" style="rounded=0;whiteSpace=wrap;html=1;" parent="1" vertex="1">
          <mxGeometry x="380" y="150" width="100" height="60" as="geometry" />
        </mxCell>
        <mxCell id="506cZ-UsrLEkSwaGx0-a-35" value="Gender" style="rounded=0;whiteSpace=wrap;html=1;" parent="1" vertex="1">
          <mxGeometry x="280" y="150" width="100" height="60" as="geometry" />
        </mxCell>
        <mxCell id="506cZ-UsrLEkSwaGx0-a-39" value="Phone number" style="rounded=0;whiteSpace=wrap;html=1;" parent="1" vertex="1">
          <mxGeometry x="480" y="150" width="100" height="60" as="geometry" />
        </mxCell>
        <mxCell id="506cZ-UsrLEkSwaGx0-a-40" value="Employee name" style="rounded=0;whiteSpace=wrap;html=1;" parent="1" vertex="1">
          <mxGeometry x="180" y="150" width="100" height="60" as="geometry" />
        </mxCell>
        <mxCell id="506cZ-UsrLEkSwaGx0-a-41" value="&lt;u&gt;Employee ID&lt;/u&gt;" style="rounded=0;whiteSpace=wrap;html=1;" parent="1" vertex="1">
          <mxGeometry x="80" y="150" width="100" height="60" as="geometry" />
        </mxCell>
        <mxCell id="506cZ-UsrLEkSwaGx0-a-42" style="edgeStyle=orthogonalEdgeStyle;rounded=0;orthogonalLoop=1;jettySize=auto;html=1;exitX=0.5;exitY=1;exitDx=0;exitDy=0;" parent="1" source="506cZ-UsrLEkSwaGx0-a-41" target="506cZ-UsrLEkSwaGx0-a-41" edge="1">
          <mxGeometry relative="1" as="geometry" />
        </mxCell>
        <mxCell id="506cZ-UsrLEkSwaGx0-a-50" value="Khách hàng" style="text;html=1;strokeColor=none;fillColor=none;align=center;verticalAlign=middle;whiteSpace=wrap;rounded=0;" parent="1" vertex="1">
          <mxGeometry x="80" y="450" width="80" height="30" as="geometry" />
        </mxCell>
        <mxCell id="506cZ-UsrLEkSwaGx0-a-51" value="Customer name" style="rounded=0;whiteSpace=wrap;html=1;" parent="1" vertex="1">
          <mxGeometry x="180" y="480" width="90" height="60" as="geometry" />
        </mxCell>
        <mxCell id="506cZ-UsrLEkSwaGx0-a-52" value="Gender" style="rounded=0;whiteSpace=wrap;html=1;" parent="1" vertex="1">
          <mxGeometry x="355" y="480" width="95" height="60" as="geometry" />
        </mxCell>
        <mxCell id="506cZ-UsrLEkSwaGx0-a-53" value="Date of birth" style="rounded=0;whiteSpace=wrap;html=1;" parent="1" vertex="1">
          <mxGeometry x="270" y="480" width="90" height="60" as="geometry" />
        </mxCell>
        <mxCell id="506cZ-UsrLEkSwaGx0-a-54" value="Customer ID" style="rounded=0;whiteSpace=wrap;html=1;" parent="1" vertex="1">
          <mxGeometry x="80" y="480" width="100" height="60" as="geometry" />
        </mxCell>
        <mxCell id="506cZ-UsrLEkSwaGx0-a-55" value="Invoice" style="text;html=1;align=center;verticalAlign=middle;resizable=0;points=[];autosize=1;strokeColor=none;fillColor=none;" parent="1" vertex="1">
          <mxGeometry x="83" y="550" width="50" height="20" as="geometry" />
        </mxCell>
        <mxCell id="506cZ-UsrLEkSwaGx0-a-56" value="Customer ID" style="rounded=0;whiteSpace=wrap;html=1;" parent="1" vertex="1">
          <mxGeometry x="200" y="570" width="120" height="60" as="geometry" />
        </mxCell>
        <mxCell id="506cZ-UsrLEkSwaGx0-a-57" value="&lt;u&gt;Invoice ID&lt;/u&gt;" style="rounded=0;whiteSpace=wrap;html=1;" parent="1" vertex="1">
          <mxGeometry x="80" y="570" width="120" height="60" as="geometry" />
        </mxCell>
        <mxCell id="506cZ-UsrLEkSwaGx0-a-58" value="Details invoice" style="text;html=1;align=center;verticalAlign=middle;resizable=0;points=[];autosize=1;strokeColor=none;fillColor=none;" parent="1" vertex="1">
          <mxGeometry x="85" y="640" width="90" height="20" as="geometry" />
        </mxCell>
        <mxCell id="506cZ-UsrLEkSwaGx0-a-59" value="Quantity purchased" style="rounded=0;whiteSpace=wrap;html=1;" parent="1" vertex="1">
          <mxGeometry x="320" y="670" width="120" height="60" as="geometry" />
        </mxCell>
        <mxCell id="506cZ-UsrLEkSwaGx0-a-60" value="Sale price" style="rounded=0;whiteSpace=wrap;html=1;" parent="1" vertex="1">
          <mxGeometry x="440" y="670" width="120" height="60" as="geometry" />
        </mxCell>
        <mxCell id="506cZ-UsrLEkSwaGx0-a-61" value="Product ID" style="rounded=0;whiteSpace=wrap;html=1;" parent="1" vertex="1">
          <mxGeometry x="200" y="670" width="120" height="60" as="geometry" />
        </mxCell>
        <mxCell id="506cZ-UsrLEkSwaGx0-a-62" value="&lt;u&gt;Invoice ID&lt;/u&gt;" style="rounded=0;whiteSpace=wrap;html=1;" parent="1" vertex="1">
          <mxGeometry x="80" y="670" width="120" height="60" as="geometry" />
        </mxCell>
        <mxCell id="506cZ-UsrLEkSwaGx0-a-68" value="Product ID" style="rounded=0;whiteSpace=wrap;html=1;" parent="1" vertex="1">
          <mxGeometry x="80" y="380" width="120" height="60" as="geometry" />
        </mxCell>
        <mxCell id="506cZ-UsrLEkSwaGx0-a-69" value="Product" style="text;html=1;strokeColor=none;fillColor=none;align=center;verticalAlign=middle;whiteSpace=wrap;rounded=0;" parent="1" vertex="1">
          <mxGeometry x="80" y="340" width="60" height="30" as="geometry" />
        </mxCell>
        <mxCell id="506cZ-UsrLEkSwaGx0-a-70" value="Price" style="rounded=0;whiteSpace=wrap;html=1;" parent="1" vertex="1">
          <mxGeometry x="440" y="380" width="120" height="60" as="geometry" />
        </mxCell>
        <mxCell id="506cZ-UsrLEkSwaGx0-a-71" value="Amount" style="rounded=0;whiteSpace=wrap;html=1;" parent="1" vertex="1">
          <mxGeometry x="320" y="380" width="120" height="60" as="geometry" />
        </mxCell>
        <mxCell id="506cZ-UsrLEkSwaGx0-a-72" value="Product name" style="rounded=0;whiteSpace=wrap;html=1;" parent="1" vertex="1">
          <mxGeometry x="200" y="380" width="120" height="60" as="geometry" />
        </mxCell>
        <mxCell id="506cZ-UsrLEkSwaGx0-a-74" value="" style="endArrow=classic;html=1;rounded=0;exitX=0.5;exitY=1;exitDx=0;exitDy=0;entryX=0;entryY=0.5;entryDx=0;entryDy=0;" parent="1" source="506cZ-UsrLEkSwaGx0-a-61" target="506cZ-UsrLEkSwaGx0-a-68" edge="1">
          <mxGeometry width="50" height="50" relative="1" as="geometry">
            <mxPoint x="670" y="470" as="sourcePoint" />
            <mxPoint x="720" y="420" as="targetPoint" />
            <Array as="points">
              <mxPoint x="260" y="760" />
              <mxPoint x="30" y="760" />
              <mxPoint x="30" y="410" />
            </Array>
          </mxGeometry>
        </mxCell>
        <mxCell id="506cZ-UsrLEkSwaGx0-a-78" value="" style="endArrow=classic;html=1;rounded=0;exitX=0.5;exitY=0;exitDx=0;exitDy=0;entryX=0.5;entryY=1;entryDx=0;entryDy=0;" parent="1" source="506cZ-UsrLEkSwaGx0-a-56" target="506cZ-UsrLEkSwaGx0-a-54" edge="1">
          <mxGeometry width="50" height="50" relative="1" as="geometry">
            <mxPoint x="569" y="150" as="sourcePoint" />
            <mxPoint x="720" y="320" as="targetPoint" />
            <Array as="points" />
          </mxGeometry>
        </mxCell>
        <mxCell id="IagQFrI0ZWec4tFPNF5D-1" value="Address Customer" style="rounded=0;whiteSpace=wrap;html=1;" vertex="1" parent="1">
          <mxGeometry x="450" y="480" width="100" height="60" as="geometry" />
        </mxCell>
        <mxCell id="IagQFrI0ZWec4tFPNF5D-2" value="Phone number" style="rounded=0;whiteSpace=wrap;html=1;" vertex="1" parent="1">
          <mxGeometry x="550" y="480" width="90" height="60" as="geometry" />
        </mxCell>
        <mxCell id="IagQFrI0ZWec4tFPNF5D-3" value="Email" style="rounded=0;whiteSpace=wrap;html=1;" vertex="1" parent="1">
          <mxGeometry x="640" y="480" width="80" height="60" as="geometry" />
        </mxCell>
        <mxCell id="IagQFrI0ZWec4tFPNF5D-4" value="Order date" style="rounded=0;whiteSpace=wrap;html=1;" vertex="1" parent="1">
          <mxGeometry x="320" y="570" width="120" height="60" as="geometry" />
        </mxCell>
        <mxCell id="IagQFrI0ZWec4tFPNF5D-5" value="Status invoice" style="rounded=0;whiteSpace=wrap;html=1;" vertex="1" parent="1">
          <mxGeometry x="441" y="570" width="120" height="60" as="geometry" />
        </mxCell>
        <mxCell id="IagQFrI0ZWec4tFPNF5D-6" value="" style="endArrow=classic;html=1;rounded=0;entryX=0;entryY=0.5;entryDx=0;entryDy=0;exitX=0;exitY=0.5;exitDx=0;exitDy=0;" edge="1" parent="1" source="506cZ-UsrLEkSwaGx0-a-62" target="506cZ-UsrLEkSwaGx0-a-57">
          <mxGeometry width="50" height="50" relative="1" as="geometry">
            <mxPoint x="509" y="160" as="sourcePoint" />
            <mxPoint x="378" y="123" as="targetPoint" />
            <Array as="points">
              <mxPoint x="50" y="700" />
              <mxPoint x="50" y="600" />
            </Array>
          </mxGeometry>
        </mxCell>
      </root>
    </mxGraphModel>
  </diagram>
</mxfile>
